<?xml version="1.0" encoding="UTF-8" standalone="no"?>
<!-- Created with Inkscape (http://www.inkscape.org/) -->

<svg
   width="88.005539mm"
   height="88.005569mm"
   viewBox="0 0 88.005539 88.005569"
   version="1.1"
   id="svg1"
   xml:space="preserve"
   xmlns:inkscape="http://www.inkscape.org/namespaces/inkscape"
   xmlns:sodipodi="http://sodipodi.sourceforge.net/DTD/sodipodi-0.dtd"
   xmlns="http://www.w3.org/2000/svg"
   xmlns:svg="http://www.w3.org/2000/svg"><sodipodi:namedview
     id="namedview1"
     pagecolor="#000000"
     bordercolor="#000000"
     borderopacity="0.16078431"
     inkscape:showpageshadow="2"
     inkscape:pageopacity="0.0"
     inkscape:pagecheckerboard="true"
     inkscape:deskcolor="#d1d1d1"
     inkscape:document-units="mm"
     showguides="true" /><defs
     id="defs1" /><g
     inkscape:label="Layer 1"
     inkscape:groupmode="layer"
     id="layer1"
     transform="translate(-53.066179,-47.130267)"><g
       id="g6"
       inkscape:export-filename="512.svg"
       inkscape:export-xdpi="147.77251"
       inkscape:export-ydpi="147.77251"
       transform="matrix(5.8049173,0,0,5.8049173,-428.92081,-565.34441)"><path
         id="path2-9"
         style="fill:#0076ff;stroke-width:0.079375"
         d="m 98.191327,113.08989 a 7.5802584,7.5802584 0 0 1 -7.580258,7.58026 7.5802584,7.5802584 0 0 1 -7.580259,-7.58026 7.5802584,7.5802584 0 0 1 7.580259,-7.58026 7.5802584,7.5802584 0 0 1 7.580258,7.58026 z" /><path
         style="fill:#ffc30d;fill-opacity:1;stroke-width:0.204015"
         d="m 90.396392,119.80383 c -0.142036,-0.0581 -0.275993,-0.21089 -0.345771,-0.39439 l -0.05642,-0.14834 h 0.646424 c 0.415335,0 0.64641,0.0202 0.64641,0.0567 0,0.0312 -0.03805,0.13023 -0.08448,0.22018 -0.130069,0.25157 -0.523806,0.38145 -0.806109,0.26591 z m -1.041786,-0.93133 c -0.09916,-0.0991 -0.07708,-0.30268 0.0396,-0.36514 0.06268,-0.0336 0.570392,-0.0559 1.272048,-0.0559 0.701656,0 1.209307,0.0224 1.272062,0.0559 0.05926,0.0317 0.104426,0.11266 0.104426,0.18702 0,0.0744 -0.04517,0.15531 -0.104426,0.18704 -0.154985,0.0829 -2.499989,0.0747 -2.583756,-0.008 z m -0.0086,-0.7689 c -0.03562,-0.0429 -0.05684,-0.13407 -0.04715,-0.20243 l 0.01766,-0.12436 1.334717,-0.0144 1.334716,-0.0144 0.03433,0.13661 c 0.07137,0.28425 0.01282,0.29714 -1.354234,0.29714 -1.028721,0 -1.266977,-0.0143 -1.320029,-0.078 z m -0.05657,-0.88552 c -0.09417,-0.0941 -0.16621,-0.2354 -0.185799,-0.36435 -0.152107,-1.00108 -0.317991,-1.4178 -0.981169,-2.46457 -0.813958,-1.2848 -1.02345,-1.92367 -0.977319,-2.98028 0.04387,-1.00669 0.326351,-1.66596 1.009089,-2.35579 0.333919,-0.3374 0.498391,-0.45486 0.919467,-0.65669 0.610082,-0.29244 0.917417,-0.36287 1.5837,-0.36287 0.958743,0 1.78947,0.3438 2.46641,1.02072 0.743782,0.74381 1.063382,1.60677 1.009289,2.72524 -0.04488,0.92762 -0.239166,1.44643 -0.972462,2.59656 -0.642293,1.00742 -0.874892,1.57999 -0.984844,2.42435 -0.02479,0.18986 -0.07807,0.30868 -0.187695,0.41833 l -0.153161,0.15317 h -1.19575 -1.195844 z m 2.440199,-0.34787 c 0.02279,-0.0358 0.04175,-0.14018 0.04217,-0.23188 0.0014,-0.2907 0.210459,-1.00535 0.424852,-1.45259 0.113832,-0.23751 0.377468,-0.69903 0.585833,-1.02559 0.723041,-1.13327 0.934042,-1.71226 0.932588,-2.55914 -0.0014,-0.90834 -0.292033,-1.63319 -0.896858,-2.23801 -0.608314,-0.6083 -1.335856,-0.90679 -2.205932,-0.905 -1.401531,0.002 -2.614001,0.94701 -2.969645,2.31243 -0.113678,0.43655 -0.102859,1.20621 0.02393,1.702 0.124798,0.48809 0.308489,0.86272 0.83533,1.70394 0.66265,1.05806 0.900861,1.62413 0.980796,2.33067 0.02066,0.18264 0.06624,0.36088 0.101428,0.39606 0.09003,0.0902 2.086763,0.0595 2.145528,-0.0329 z m -2.974633,-3.22975 c -0.182751,-0.19616 -0.484686,-0.82459 -0.569936,-1.18621 -0.160041,-0.679 -0.08832,-1.50054 0.178821,-2.04893 0.113832,-0.23373 0.169359,-0.2936 0.272102,-0.2936 0.230434,0 0.25129,0.13434 0.08447,0.54405 -0.120095,0.29477 -0.157064,0.48399 -0.175484,0.89693 -0.02763,0.61794 0.08335,1.06396 0.391544,1.57489 0.216798,0.35935 0.236844,0.49153 0.08676,0.57183 -0.139471,0.0746 -0.144969,0.0734 -0.268271,-0.0589 z m -1.898227,1.70265 c -0.05869,-0.0709 -0.02393,-0.1285 0.232072,-0.38447 0.203665,-0.20367 0.329088,-0.2905 0.387327,-0.26815 0.132347,0.0507 0.105573,0.1258 -0.139899,0.39202 -0.290309,0.31493 -0.389607,0.36891 -0.479486,0.2606 z m 7.103707,-0.19322 c -0.312776,-0.31278 -0.35523,-0.40461 -0.21244,-0.4594 0.05827,-0.0224 0.184405,0.0653 0.390092,0.27093 0.285778,0.28578 0.298501,0.30944 0.21244,0.39548 -0.08605,0.0861 -0.109412,0.0737 -0.390092,-0.20701 z m 1.050917,-1.55596 c -0.338789,-0.14784 -0.466835,-0.29368 -0.310524,-0.35367 0.04146,-0.0159 0.23935,0.0446 0.439867,0.13463 0.266048,0.11938 0.359817,0.18801 0.347024,0.254 -0.02651,0.13675 -0.09417,0.13177 -0.476367,-0.035 z m -9.312843,0.0511 c -0.05827,-0.0943 0.06996,-0.19571 0.406901,-0.32174 0.582358,-0.21777 0.653631,0.007 0.07551,0.23908 -0.388254,0.15544 -0.432786,0.16306 -0.482478,0.0827 z m -0.343714,-1.93509 c -0.0423,-0.0275 -0.06041,-0.0877 -0.04132,-0.13762 0.02835,-0.0738 0.104711,-0.0861 0.453187,-0.073 0.37791,0.0143 0.419167,0.0263 0.419167,0.1238 0,0.0963 -0.0406,0.10937 -0.377866,0.12181 -0.207811,0.007 -0.411745,-0.008 -0.453188,-0.035 z m 9.677134,-0.0302 c -0.05699,-0.14868 0.04102,-0.19152 0.438301,-0.19152 0.4078,0 0.51815,0.0525 0.402885,0.19129 -0.09204,0.11096 -0.798632,0.11119 -0.841186,2.1e-4 z m -0.362324,-1.7258 c -0.03805,-0.0993 0.09132,-0.19132 0.461222,-0.32804 0.253869,-0.0938 0.420379,-0.0827 0.420379,0.0284 0,0.0321 -0.132776,0.11742 -0.295068,0.18914 -0.426775,0.18873 -0.547797,0.21155 -0.586533,0.11061 z m -8.61871,-0.10993 c -0.208794,-0.0882 -0.302006,-0.15923 -0.31413,-0.23921 -0.02365,-0.1562 0.08263,-0.14638 0.509133,0.047 0.2167,0.0983 0.345769,0.18745 0.331951,0.2294 -0.03618,0.1096 -0.208008,0.0977 -0.526954,-0.0371 z m 1.054266,-1.54938 c -0.312777,-0.31278 -0.35523,-0.40459 -0.21244,-0.45939 0.05827,-0.0224 0.184402,0.0653 0.390089,0.27092 0.285781,0.28578 0.298503,0.30944 0.21244,0.3955 -0.08605,0.0861 -0.109411,0.0737 -0.390089,-0.20703 z m 6.624248,0.23999 c -0.124085,-0.0444 -0.06966,-0.15173 0.225134,-0.4428 0.194946,-0.19254 0.321039,-0.27804 0.377839,-0.25625 0.13135,0.0504 0.104279,0.1258 -0.140753,0.39168 -0.248711,0.26983 -0.360187,0.34395 -0.462205,0.30737 z m -1.460739,-0.99823 c -0.06012,-0.0601 0.07977,-0.48673 0.241731,-0.73706 0.0708,-0.10937 0.09344,-0.11683 0.158091,-0.0523 0.06468,0.0647 0.05499,0.12708 -0.06724,0.43536 -0.145099,0.3657 -0.230176,0.45625 -0.332522,0.35391 z m -3.592734,-0.31605 c -0.15598,-0.35968 -0.171794,-0.45747 -0.0829,-0.51245 0.08392,-0.0519 0.175329,0.0667 0.309913,0.40176 0.14299,0.35589 0.145967,0.43814 0.01581,0.43814 -0.07181,0 -0.141751,-0.0944 -0.242898,-0.32745 z m 1.825416,-0.0652 c -0.01624,-0.0424 -0.02223,-0.24446 -0.01282,-0.44931 0.01439,-0.33116 0.02821,-0.37252 0.124085,-0.37252 0.09901,0 0.107981,0.0361 0.107981,0.43111 0,0.36791 -0.01425,0.43375 -0.09459,0.44931 -0.052,0.009 -0.107845,-0.0164 -0.124084,-0.0586 z"
         id="path6"
         sodipodi:nodetypes="sscsssssssssssscscccssccsssssssssssscccsscsscsssssssssssssssssssssssssssssssssssscscscccssccsssssssssssssssssssssssssssssssccssccc" /></g></g></svg>
