<?xml version="1.0" encoding="UTF-8" standalone="no"?>
<!-- Created with Inkscape (http://www.inkscape.org/) -->

<svg
   width="512.22583"
   height="512.32513"
   viewBox="0 0 135.52642 135.5527"
   version="1.1"
   id="svg1"
   xml:space="preserve"
   sodipodi:docname="nh-logo.svg"
   inkscape:version="1.3.1 (91b66b0783, 2023-11-16)"
   inkscape:export-filename="192.png"
   inkscape:export-xdpi="36"
   inkscape:export-ydpi="36"
   xmlns:inkscape="http://www.inkscape.org/namespaces/inkscape"
   xmlns:sodipodi="http://sodipodi.sourceforge.net/DTD/sodipodi-0.dtd"
   xmlns="http://www.w3.org/2000/svg"
   xmlns:svg="http://www.w3.org/2000/svg"><sodipodi:namedview
     id="namedview1"
     pagecolor="#4d4d4d"
     bordercolor="#000000"
     borderopacity="0.16078431"
     inkscape:showpageshadow="2"
     inkscape:pageopacity="0.0"
     inkscape:pagecheckerboard="true"
     inkscape:deskcolor="#d1d1d1"
     inkscape:document-units="mm"
     showguides="true"
     showgrid="false"
     inkscape:zoom="0.45254834"
     inkscape:cx="561.26601"
     inkscape:cy="416.53009"
     inkscape:window-width="1920"
     inkscape:window-height="1009"
     inkscape:window-x="1912"
     inkscape:window-y="-8"
     inkscape:window-maximized="1"
     inkscape:current-layer="layer1"
     inkscape:export-bgcolor="#4d4d4d00" /><defs
     id="defs1" /><g
     inkscape:label="Layer 1"
     inkscape:groupmode="layer"
     id="layer1"
     transform="translate(-53.086582,-47.087261)"><g
       id="g1"
       inkscape:export-filename="512.svg"
       inkscape:export-xdpi="36"
       inkscape:export-ydpi="36"><circle
         style="fill:#4d4d4d;fill-opacity:1;stroke-width:0.08529"
         id="path1"
         cx="120.84978"
         cy="114.8636"
         r="65.334869" /><g
         id="g3"
         inkscape:export-filename="nh-logo.svg"
         inkscape:export-xdpi="95.957672"
         inkscape:export-ydpi="95.957672"
         transform="translate(-0.02987323,-0.04301088)"><g
           id="g4"
           inkscape:export-filename="nh-logo.svg"
           inkscape:export-xdpi="95.957672"
           inkscape:export-ydpi="95.957672"><rect
             style="fill:none;fill-opacity:1;stroke-width:0.080417"
             id="rect3"
             width="135.52641"
             height="135.55269"
             x="53.116455"
             y="47.130272" /><path
             style="fill:#ffcd3c;fill-opacity:1;stroke-width:1.73483"
             d="m 112.88231,167.01052 c -2.2971,-1.31693 -3.49031,-3.56067 -3.49031,-6.56325 0,-2.03402 -0.15179,-2.42066 -1.16322,-2.96192 -0.63975,-0.34239 -1.60828,-1.34266 -2.15224,-2.22284 -0.86385,-1.39772 -1.03207,-2.57516 -1.32892,-9.30074 -0.36013,-8.15952 -1.13506,-12.31617 -2.80629,-15.05273 -0.55221,-0.90423 -2.980284,-3.70959 -5.395644,-6.23411 -4.954326,-5.17817 -7.280293,-8.70008 -9.166802,-13.88007 -5.351525,-14.694188 -0.87107,-31.202125 11.123242,-40.982866 3.376864,-2.75365 9.917854,-6.094819 14.102894,-7.203833 4.53147,-1.200813 12.52771,-1.084436 17.18671,0.250138 20.72075,5.93547 31.90855,27.768779 24.5636,47.936561 -1.88652,5.17999 -4.21248,8.7019 -9.16679,13.88007 -2.41541,2.52452 -4.84343,5.32988 -5.39567,6.23411 -1.67123,2.73656 -2.44615,6.89321 -2.80629,15.05273 -0.29685,6.72558 -0.46509,7.90302 -1.32891,9.30074 -0.54399,0.88018 -1.51249,1.88045 -2.15224,2.22284 -1.01136,0.54126 -1.1632,0.9279 -1.1632,2.96192 0,3.00258 -1.19322,5.24632 -3.49032,6.56325 -1.60824,0.92205 -2.41201,1.02522 -7.98481,1.02522 -5.57277,0 -6.37657,-0.10325 -7.98479,-1.02522 z m 14.2192,-4.67022 c 0.35786,-0.49002 0.65067,-1.47116 0.65067,-2.18026 v -1.28928 h -6.88508 -6.88506 v 1.28928 c 0,1.38506 0.72706,2.57384 1.83603,3.00198 0.37868,0.14624 2.92595,0.2216 5.66062,0.16758 4.32537,-0.0855 5.05676,-0.21417 5.62282,-0.98926 z m 4.06042,-9.23988 c 0.50611,-0.5061 0.72127,-1.60154 0.72127,-3.67203 v -2.95077 H 120.8671 109.851 v 2.95077 c 0,4.50462 -0.27911,4.39333 11.0161,4.39333 8.0912,0 9.6852,-0.11182 10.29483,-0.7213 z m 0.4583,-11.93343 c 0.80329,-0.80327 1.00988,-1.59013 1.36917,-5.21399 0.44242,-4.46255 2.76634,-8.43696 8.40859,-14.38061 8.06501,-8.49586 10.49549,-14.48475 10.10384,-24.89676 -0.17034,-4.529674 -0.42927,-6.106489 -1.45757,-8.877118 -2.34377,-6.315106 -5.90682,-11.226999 -10.82674,-14.92536 -16.91652,-12.716368 -39.953664,-5.481875 -47.527584,14.92536 -1.028286,2.770629 -1.287196,4.347444 -1.457589,8.877118 -0.391633,10.41201 2.03885,16.4009 10.103883,24.89676 5.64227,5.94365 7.96615,9.91806 8.40857,14.38061 0.62063,6.26007 -0.0442,5.93459 12.1223,5.93459 8.50438,0 10.14231,-0.10976 10.75313,-0.7206 z M 97.299521,96.983745 c -1.536101,-1.697336 -0.68717,-7.709549 1.817295,-12.870628 1.503934,-3.099143 6.870414,-8.660026 9.794094,-10.148851 3.11302,-1.585242 6.62934,-2.686368 9.68116,-3.031632 2.293,-0.259426 2.90998,-0.17383 3.66369,0.508286 1.12167,1.015114 1.16803,2.602593 0.10293,3.530983 -0.44453,0.387542 -2.08415,0.80983 -3.67134,0.945563 -6.01352,0.514306 -12.54491,5.0701 -15.30422,10.675044 -0.82048,1.666663 -1.61142,4.258022 -1.9038,6.237626 -0.68856,4.661639 -2.284814,6.247819 -4.180011,4.153609 z"
             id="path3" /></g></g></g></g></svg>
