<?xml version="1.0" encoding="UTF-8" standalone="no"?>
<!-- Created with Inkscape (http://www.inkscape.org/) -->

<svg
   width="512mm"
   height="512mm"
   viewBox="0 0 512 512"
   version="1.1"
   id="svg1"
   xml:space="preserve"
   sodipodi:docname="512.svg"
   inkscape:version="1.3.1 (91b66b0783, 2023-11-16)"
   xmlns:inkscape="http://www.inkscape.org/namespaces/inkscape"
   xmlns:sodipodi="http://sodipodi.sourceforge.net/DTD/sodipodi-0.dtd"
   xmlns="http://www.w3.org/2000/svg"
   xmlns:svg="http://www.w3.org/2000/svg"><sodipodi:namedview
     id="namedview1"
     pagecolor="#000000"
     bordercolor="#000000"
     borderopacity="0.16078431"
     inkscape:showpageshadow="2"
     inkscape:pageopacity="0.0"
     inkscape:pagecheckerboard="true"
     inkscape:deskcolor="#d1d1d1"
     inkscape:document-units="mm"
     showguides="true"
     showgrid="false"
     inkscape:zoom="0.10802093"
     inkscape:cx="620.2502"
     inkscape:cy="134.23325"
     inkscape:window-width="1920"
     inkscape:window-height="1009"
     inkscape:window-x="1912"
     inkscape:window-y="-8"
     inkscape:window-maximized="1"
     inkscape:current-layer="layer1" /><defs
     id="defs1" /><g
     inkscape:label="Layer 1"
     inkscape:groupmode="layer"
     id="layer1"
     transform="translate(-53.066179,-47.130267)"><circle
       style="fill:#f9f9f9;fill-opacity:1;stroke-width:0.931671"
       id="path1"
       cx="308.67099"
       cy="301.93533"
       r="256" /><path
       style="fill:#ff7100;fill-opacity:1;stroke-width:6.7016"
       d="m 301.61907,522.47883 c -4.6657,-1.90852 -9.06599,-6.92744 -11.35808,-12.95519 l -1.85335,-4.87276 h 21.23412 c 13.64319,0 21.23366,0.66355 21.23366,1.86253 0,1.02484 -1.2499,4.27788 -2.77505,7.23261 -4.27259,8.26369 -17.20627,12.53005 -26.47955,8.73472 z m -34.22118,-30.59291 c -3.25729,-3.2553 -2.53194,-9.94259 1.30078,-11.99432 2.05899,-1.10369 18.73657,-1.83622 41.78499,-1.83622 23.04837,0 39.72397,0.73581 41.7854,1.83622 1.9466,1.04131 3.43027,3.70076 3.43027,6.14335 0,2.44396 -1.48376,5.1017 -3.43027,6.14399 -5.09101,2.72315 -82.12108,2.45381 -84.87269,-0.26256 z m -0.28237,-25.25726 c -1.1701,-1.4092 -1.86717,-4.40398 -1.54886,-6.64954 l 0.58015,-4.08505 43.84353,-0.47307 43.84354,-0.47306 1.12767,4.48744 c 2.34441,9.33723 0.42101,9.7606 -44.48468,9.7606 -33.79202,0 -41.61835,-0.46967 -43.36105,-2.56217 z m -1.85826,-29.08806 c -3.09338,-3.09104 -5.45974,-7.73256 -6.10326,-11.96837 -4.99645,-32.88406 -10.44554,-46.5727 -32.22997,-80.95762 -26.73737,-42.2038 -33.61886,-63.18979 -32.10355,-97.89795 1.44105,-33.06831 10.72015,-54.72442 33.14713,-77.3843 10.96875,-11.08311 16.37146,-14.94154 30.20317,-21.57132 20.04036,-9.60624 30.13585,-11.91976 52.02231,-11.91976 31.49332,0 58.78149,11.29333 81.01801,33.52918 24.43222,24.4331 34.93061,52.78009 33.1537,89.52027 -1.4742,30.47094 -7.8562,47.51311 -31.94397,85.29324 -21.09841,33.09231 -28.73893,51.9004 -32.35073,79.63644 -0.81429,6.23661 -2.56449,10.13967 -6.16549,13.74153 l -5.03114,5.03142 h -39.27869 -39.28172 z m 80.15709,-11.42705 c 0.74857,-1.17595 1.37139,-4.6047 1.38518,-7.61689 0.0452,-9.54909 6.91331,-33.0243 13.95579,-47.71554 3.73918,-7.80184 12.39928,-22.96213 19.24377,-33.68915 26.20106,-75.20415 6.18002,-50.73233 6.13225,-78.55113 -0.0452,-29.83767 14.90907,-59.16091 -4.95857,-79.02839 -19.98224,-19.98178 -43.88095,-29.78676 -72.4617,-29.72795 -46.03829,0.0656 -85.86621,31.10796 -97.54863,75.96005 -3.73415,14.34001 -3.37873,39.62221 0.78611,55.90821 4.09941,16.0331 10.1334,28.33912 27.43939,55.97205 21.7671,34.75575 29.59197,53.35034 32.21776,76.55913 0.67863,5.99946 16.26447,0.82782 17.42034,1.98407 2.95737,2.96294 54.45861,12.98045 56.38891,9.94525 z M 237.90109,335.94722 c -3.76979,-7.95922 -26.33458,-41.78767 -29.13492,-53.66639 -5.25708,-22.30414 -0.45099,-63.99198 8.32426,-82.00581 3.73918,-7.67767 18.4267,-25.57065 21.80164,-25.57065 7.5694,0 10.42957,-16.2981 24.82644,-18.26869 11.24451,-1.54061 18.70421,-8.25454 23.28854,-9.66934 16.37121,-5.05207 45.37048,3.93827 55.77297,6.07965 21.64465,4.45524 23.13618,6.89785 26.65779,11.00066 26.1809,30.50252 18.46439,14.93656 26.17461,26.59482 9.15726,13.84606 17.21188,83.84829 18.87441,92.89613 3.63152,19.76301 -33.63006,43.41527 -27.8995,52.91376 3.82888,6.34669 -30.12594,66.72764 -39.88535,91.59495 -8.39272,21.3851 -64.01878,0.69971 -66.29824,1.91839 -4.58116,2.45051 -28.93364,-65.17127 -31.47656,-70.53998 z m -52.55324,40.00326 c -1.9279,-2.32889 -0.78612,-4.22101 7.62318,-12.62923 6.69011,-6.69029 10.81007,-9.54253 12.72318,-8.80835 4.3474,1.66541 3.46792,4.13235 -4.59553,12.87727 -9.53622,10.34502 -12.79799,12.11821 -15.75038,8.56031 z m 233.3466,-6.34696 c -10.27423,-10.27435 -11.66878,-13.29086 -6.97836,-15.09062 1.91408,-0.73582 6.05746,2.14499 12.81395,8.89966 9.38741,9.38747 9.80537,10.16465 6.97837,12.99092 -2.82661,2.8283 -3.59404,2.42098 -12.81396,-6.79996 z m 34.52109,-51.11106 c -11.12872,-4.85634 -15.33481,-9.64698 -10.20022,-11.61758 1.36188,-0.52231 7.86224,1.46506 14.44897,4.42241 8.73933,3.92147 11.8195,6.17586 11.39923,8.34356 -0.87079,4.49202 -3.0933,4.32843 -15.64798,-1.1497 z m -305.91356,1.67856 c -1.91407,-3.09761 2.29807,-6.42879 13.36614,-10.56868 19.12962,-7.15345 21.47081,0.22974 2.48039,7.85344 -12.75364,5.10594 -14.21641,5.35629 -15.84875,2.71653 z m -11.29051,-63.56496 c -1.3895,-0.9033 -1.98441,-2.88082 -1.35731,-4.5206 0.93126,-2.42422 3.43961,-2.82824 14.88654,-2.39796 12.41382,0.46967 13.76902,0.86393 13.76902,4.06666 0,3.16331 -1.33365,3.59263 -12.41234,4.0013 -6.82627,0.22974 -13.5252,-0.26256 -14.8866,-1.14969 z m 317.88001,-0.99203 c -1.87202,-4.88391 1.34746,-6.29113 14.39755,-6.29113 13.39568,0 17.0205,1.72458 13.23423,6.2836 -3.02341,3.64486 -26.23396,3.65244 -27.63178,0.005 z m -11.90183,-56.69004 c -1.24989,-3.26187 2.99976,-6.2846 15.15052,-10.77567 8.33919,-3.08119 13.80882,-2.71654 13.80882,0.9329 0,1.05444 -4.36149,3.85713 -9.69253,6.21302 -14.019,6.1995 -17.99437,6.94912 -19.26681,3.63338 z m -283.11231,-3.61107 c -6.85856,-2.89721 -9.92046,-5.23045 -10.31874,-7.85769 -0.77682,-5.13095 2.71429,-4.80834 16.72433,1.54387 7.11825,3.22901 11.35803,6.15747 10.90413,7.53549 -1.18851,3.60021 -6.83278,3.2093 -17.30972,-1.21867 z m 34.63116,-50.89489 c -10.27431,-10.27437 -11.6688,-13.29021 -6.97838,-15.09031 1.91407,-0.73581 6.05735,2.145 12.8139,8.89935 9.38746,9.38747 9.80537,10.16463 6.97832,12.99158 -2.82662,2.82829 -3.59399,2.42097 -12.81384,-6.80062 z m 217.59706,7.8833 c -4.076,-1.45848 -2.28823,-4.98412 7.3953,-14.54531 6.40374,-6.32466 10.54571,-9.13321 12.41151,-8.41745 4.31463,1.65553 3.42541,4.13231 -4.62353,12.86614 -8.16982,8.86352 -11.83165,11.29826 -15.18277,10.09662 z m -47.98319,-32.79041 c -1.97485,-1.97416 2.62034,-15.9884 7.94053,-24.211353 2.3257,-3.5927 3.06936,-3.83771 5.19309,-1.718 2.12464,2.12532 1.80633,4.1744 -2.20878,14.300973 -4.76631,12.01271 -7.56093,14.98713 -10.92286,11.62544 z M 245.10609,109.12915 c -5.1237,-11.815023 -5.64319,-15.027263 -2.72315,-16.833263 2.75666,-1.70486 5.75931,2.19098 10.18019,13.197233 4.697,11.69046 4.79484,14.39229 0.51948,14.39229 -2.35891,0 -4.65636,-3.10093 -7.97889,-10.75626 z m 59.96232,-2.14173 c -0.53361,-1.39277 -0.73027,-8.030153 -0.42101,-14.759203 0.4725,-10.87815 0.92662,-12.23676 4.07599,-12.23676 3.25238,0 3.54702,1.18584 3.54702,14.16135 0,12.085353 -0.46797,14.248073 -3.10716,14.759223 -1.70809,0.29538 -3.54254,-0.53871 -4.07594,-1.92495 z"
       id="path6"
       sodipodi:nodetypes="sscssssscsssssscscccssccsssssssssssscccssssscsssssssssssssssssssssssssssssssssssscsssscccsccsssccsssssssssssssssssssssssssssssscccssccccsccccssccc" /></g></svg>
