<?xml version="1.0" encoding="UTF-8" standalone="no"?>
<!-- Created with Inkscape (http://www.inkscape.org/) -->

<svg
   width="512"
   height="512"
   viewBox="0 0 135.46667 135.46667"
   version="1.1"
   id="svg1"
   xml:space="preserve"
   sodipodi:docname="512.svg"
   inkscape:version="1.3.1 (91b66b0783, 2023-11-16)"
   inkscape:export-filename="512.png"
   inkscape:export-xdpi="25.4"
   inkscape:export-ydpi="25.4"
   xmlns:inkscape="http://www.inkscape.org/namespaces/inkscape"
   xmlns:sodipodi="http://sodipodi.sourceforge.net/DTD/sodipodi-0.dtd"
   xmlns="http://www.w3.org/2000/svg"
   xmlns:svg="http://www.w3.org/2000/svg"><sodipodi:namedview
     id="namedview1"
     pagecolor="#000000"
     bordercolor="#000000"
     borderopacity="0.16078431"
     inkscape:showpageshadow="2"
     inkscape:pageopacity="0.0"
     inkscape:pagecheckerboard="true"
     inkscape:deskcolor="#d1d1d1"
     inkscape:document-units="mm"
     showguides="true"
     showgrid="false"
     inkscape:zoom="0.8641674"
     inkscape:cx="431.62934"
     inkscape:cy="345.41919"
     inkscape:window-width="1920"
     inkscape:window-height="1009"
     inkscape:window-x="1912"
     inkscape:window-y="-8"
     inkscape:window-maximized="1"
     inkscape:current-layer="g3"
     inkscape:export-bgcolor="#00000000" /><defs
     id="defs1" /><g
     inkscape:label="Layer 1"
     inkscape:groupmode="layer"
     id="layer1"
     transform="translate(-53.066179,-47.130267)"><g
       id="g3"
       inkscape:export-filename="nh-logo.svg"
       inkscape:export-xdpi="95.957672"
       inkscape:export-ydpi="95.957672"><g
         id="g4"
         inkscape:export-filename="192.png"
         inkscape:export-xdpi="35.984127"
         inkscape:export-ydpi="35.984127"><rect
           style="fill:none;fill-opacity:1;stroke-width:0.080417"
           id="rect3"
           width="135.52641"
           height="135.55269"
           x="53.116455"
           y="47.130272" /><path
           style="fill:#0089ff;fill-opacity:1;stroke-width:1.59227"
           d="m 113.53946,162.72904 c -2.10835,-1.20873 -3.20351,-3.2681 -3.20351,-6.02396 0,-1.86685 -0.13932,-2.22174 -1.06762,-2.71853 -0.58719,-0.31425 -1.47612,-1.23233 -1.97539,-2.04018 -0.79287,-1.28287 -0.94727,-2.36356 -1.21972,-8.53647 -0.33055,-7.48904 -1.04178,-11.30413 -2.5757,-13.81583 -0.50684,-0.82993 -2.73536,-3.40476 -4.952268,-5.72183 -4.54721,-4.75268 -6.682041,-7.98518 -8.413536,-12.73952 -4.911774,-13.486717 -0.799492,-28.638173 10.209224,-37.615212 3.09936,-2.527374 9.10286,-5.593994 12.94401,-6.611877 4.15912,-1.10214 11.49829,-0.995325 15.77444,0.229583 19.01808,5.44774 29.28656,25.486968 22.54516,43.997506 -1.73151,4.75434 -3.86633,7.98684 -8.41354,12.73952 -2.21692,2.31707 -4.44543,4.8919 -4.95228,5.72183 -1.53391,2.5117 -2.24516,6.32679 -2.5757,13.81583 -0.27245,6.17291 -0.42686,7.2536 -1.2197,8.53647 -0.4993,0.80785 -1.38822,1.72593 -1.9754,2.04018 -0.92825,0.49679 -1.06762,0.85168 -1.06762,2.71853 0,2.75586 -1.09517,4.81523 -3.20351,6.02396 -1.47607,0.84626 -2.2138,0.94097 -7.32868,0.94097 -5.11485,0 -5.85259,-0.0947 -7.32866,-0.94097 z m 13.05076,-4.28647 c 0.32845,-0.44976 0.59722,-1.35028 0.59722,-2.00111 v -1.18333 h -6.31932 -6.3193 v 1.18333 c 0,1.27126 0.6673,2.36234 1.68515,2.7553 0.34756,0.13422 2.68553,0.2034 5.19549,0.15381 3.96994,-0.0785 4.64122,-0.19657 5.16076,-0.90798 z m 3.72679,-8.48062 c 0.46451,-0.46453 0.662,-1.46996 0.662,-3.37028 v -2.7083 h -10.11089 -10.11089 v 2.7083 c 0,4.13446 -0.25615,4.0323 10.11089,4.0323 7.42634,0 8.88935,-0.10253 9.44889,-0.66202 z m 0.42063,-10.95284 c 0.73727,-0.73726 0.9269,-1.45945 1.25667,-4.78554 0.40606,-4.09587 2.53901,-7.74369 7.71763,-13.19894 7.40228,-7.79772 9.63305,-13.2945 9.2736,-22.850924 -0.15636,-4.157454 -0.394,-5.604692 -1.3378,-8.147679 -2.15119,-5.796165 -5.42147,-10.304447 -9.9371,-13.6989 -15.52644,-11.671439 -36.67057,-5.031419 -43.622124,13.6989 -0.943786,2.542987 -1.181416,3.990225 -1.337808,8.147679 -0.359454,9.556424 1.87131,15.053204 9.273612,22.850924 5.17862,5.45525 7.31155,9.10307 7.71762,13.19894 0.56963,5.74567 -0.0405,5.44693 11.12618,5.44693 7.80557,0 9.30889,-0.10073 9.86952,-0.66139 z M 99.237137,98.456502 c -1.409859,-1.557863 -0.630677,-7.076034 1.667993,-11.813015 1.38032,-2.844487 6.30582,-7.948419 8.98927,-9.314905 2.8572,-1.454982 6.08459,-2.465624 8.88564,-2.782518 2.10456,-0.238108 2.67085,-0.159545 3.36263,0.46652 1.0295,0.931698 1.07205,2.388732 0.0945,3.240834 -0.408,0.355693 -1.9129,0.743289 -3.36967,0.867861 -5.51938,0.472049 -11.51406,4.653479 -14.04664,9.79786 -0.75306,1.529705 -1.47899,3.90813 -1.74736,5.72507 -0.63197,4.27858 -2.09704,5.734411 -3.83651,3.812293 z"
           id="path3" /></g></g></g></svg>
