<?xml version="1.0" encoding="UTF-8" standalone="no"?>
<!-- Created with Inkscape (http://www.inkscape.org/) -->

<svg
   width="512.22583"
   height="512.32513"
   viewBox="0 0 135.52642 135.5527"
   version="1.1"
   id="svg1"
   xml:space="preserve"
   sodipodi:docname="512.svg"
   inkscape:version="1.3.1 (91b66b0783, 2023-11-16)"
   inkscape:export-filename="512.png"
   inkscape:export-xdpi="25.4"
   inkscape:export-ydpi="25.4"
   xmlns:inkscape="http://www.inkscape.org/namespaces/inkscape"
   xmlns:sodipodi="http://sodipodi.sourceforge.net/DTD/sodipodi-0.dtd"
   xmlns="http://www.w3.org/2000/svg"
   xmlns:svg="http://www.w3.org/2000/svg"><sodipodi:namedview
     id="namedview1"
     pagecolor="#000000"
     bordercolor="#000000"
     borderopacity="0.16078431"
     inkscape:showpageshadow="2"
     inkscape:pageopacity="0.0"
     inkscape:pagecheckerboard="true"
     inkscape:deskcolor="#d1d1d1"
     inkscape:document-units="mm"
     showguides="true"
     showgrid="false"
     inkscape:zoom="0.10802093"
     inkscape:cx="620.2502"
     inkscape:cy="134.23325"
     inkscape:window-width="1920"
     inkscape:window-height="1009"
     inkscape:window-x="1912"
     inkscape:window-y="-8"
     inkscape:window-maximized="1"
     inkscape:current-layer="layer1"
     inkscape:export-bgcolor="#00000000" /><defs
     id="defs1" /><g
     inkscape:label="Layer 1"
     inkscape:groupmode="layer"
     id="layer1"
     transform="translate(-53.116454,-47.13027)"><g
       id="g3"
       transform="matrix(0.99999999,0,0,1.0033996,0.05027749,-0.16022178)"
       inkscape:export-filename="nh-logo.svg"
       inkscape:export-xdpi="95.957672"
       inkscape:export-ydpi="95.957672"><path
         style="fill:#ff7100;fill-opacity:1;stroke-width:2.2629"
         d="m 118.13798,179.71741 c -1.57546,-0.64444 -3.06128,-2.33915 -3.83523,-4.3745 l -0.62582,-1.64536 h 7.17001 c 4.60681,0 7.16984,0.22405 7.16984,0.62892 0,0.34605 -0.42203,1.44448 -0.93702,2.44218 -1.4427,2.79036 -5.80995,4.23096 -8.94121,2.9494 z M 106.5827,169.38727 c -1.09987,-1.09919 -0.85494,-3.35725 0.43923,-4.05005 0.69523,-0.37268 6.32666,-0.62002 14.10929,-0.62002 7.78261,0 13.41336,0.24846 14.10944,0.62002 0.6573,0.35161 1.15828,1.24961 1.15828,2.07439 0,0.82524 -0.50101,1.72266 -1.15828,2.0746 -1.71904,0.91953 -27.72935,0.82857 -28.65847,-0.0886 z m -0.0954,-8.52847 c -0.39509,-0.47585 -0.63047,-1.48706 -0.52298,-2.2453 l 0.19589,-1.37938 14.8044,-0.15974 14.80441,-0.15974 0.38076,1.51525 c 0.79161,3.15285 0.14218,3.2958 -15.02089,3.2958 -11.41036,0 -14.05304,-0.15859 -14.64148,-0.86515 z m -0.62745,-9.82201 c -1.04454,-1.04373 -1.84356,-2.61101 -2.06086,-4.04128 -1.68721,-11.10378 -3.52717,-15.72594 -10.882984,-27.33651 -9.02827,-14.25072 -11.35191,-21.336938 -10.84023,-33.056648 0.48658,-11.16598 3.61981,-18.47848 11.1926,-26.12992 3.70375,-3.74237 5.52805,-5.04522 10.198534,-7.28386 6.76692,-3.24369 10.17579,-4.02488 17.56608,-4.02488 10.63417,0 19.84841,3.81336 27.3569,11.32161 8.24988,8.25019 11.7948,17.82196 11.19482,30.22781 -0.49778,10.288948 -2.65276,16.043488 -10.78635,28.800478 -7.12418,11.17409 -9.7041,17.52492 -10.92369,26.89039 -0.27493,2.10588 -0.86594,3.42382 -2.08186,4.64003 l -1.69884,1.69893 h -13.263 -13.26404 z m 27.06619,-3.8585 c 0.25277,-0.39709 0.46306,-1.55484 0.46772,-2.57195 0.0152,-3.22438 2.33437,-11.15113 4.71237,-16.11184 1.26259,-2.6344 4.18679,-7.75349 6.49795,-11.37563 8.84714,-25.393748 2.08676,-17.130488 2.07063,-26.523898 -0.0152,-10.07513 5.03425,-19.97655 -1.67434,-26.68508 -6.74729,-6.74713 -14.81702,-10.05793 -24.46773,-10.03807 -15.54549,0.0221 -28.580414,8.64315 -32.525154,23.7881 -1.26089,4.84211 -2.79502,10.27752 -0.14809,20.73911 1.37063,5.417268 3.42168,9.569108 9.26531,18.899768 7.349954,11.73578 9.992144,18.0145 10.878774,25.85128 0.22915,2.02581 5.49193,0.27953 5.88223,0.66996 0.9986,1.00047 18.38873,4.38304 19.04053,3.35815 z M 96.622676,116.73233 c -1.27293,-2.68754 -2.68926,-9.97487 -5.28896,-17.707678 -2.46574,-7.3343 -1.2833,-18.04373 1.98373,-23.96866 1.38951,-2.51994 0.0264,-3.22464 5.29398,-9.25459 1.681534,-1.92489 5.382584,-5.50329 10.037124,-7.61605 3.48968,-1.58401 5.90223,-3.8211 7.45019,-4.29883 5.52797,-1.7059 12.42525,0.29598 15.93781,1.01905 7.30863,1.50438 7.81226,2.32916 9.00139,3.71453 8.84035,10.29962 6.23475,5.04354 8.83822,8.98013 3.09209,4.67531 5.81184,28.31257 6.37323,31.36773 1.22623,6.673238 -11.35568,14.659758 -9.42068,17.867068 1.29288,2.14306 -10.17245,22.53155 -13.46786,30.92835 -2.83392,7.22098 -21.61686,0.23628 -22.38655,0.64778 -1.54689,0.82744 -9.76985,-22.00602 -10.6285,-23.81884 z"
         id="path6"
         sodipodi:nodetypes="sscssssscsssssscscccssccsssssssssssscccssssscsssssssssssssssssssssssss"
         inkscape:export-filename="512.png"
         inkscape:export-xdpi="25.4"
         inkscape:export-ydpi="25.4" /><rect
         style="fill:none;fill-opacity:1;stroke-width:0.0802807"
         id="rect3"
         width="135.52641"
         height="135.09343"
         x="53.066177"
         y="47.130268" /></g></g></svg>
