<?xml version="1.0" encoding="UTF-8" standalone="no"?>
<!-- Created with Inkscape (http://www.inkscape.org/) -->

<svg
   width="512"
   height="512"
   viewBox="0 0 135.46667 135.46667"
   version="1.1"
   id="svg1"
   xml:space="preserve"
   sodipodi:docname="nh-logo.svg"
   inkscape:version="1.3.1 (91b66b0783, 2023-11-16)"
   inkscape:export-filename="512.png"
   inkscape:export-xdpi="25.4"
   inkscape:export-ydpi="25.4"
   xmlns:inkscape="http://www.inkscape.org/namespaces/inkscape"
   xmlns:sodipodi="http://sodipodi.sourceforge.net/DTD/sodipodi-0.dtd"
   xmlns="http://www.w3.org/2000/svg"
   xmlns:svg="http://www.w3.org/2000/svg"><sodipodi:namedview
     id="namedview1"
     pagecolor="#4d4d4d"
     bordercolor="#000000"
     borderopacity="0.16078431"
     inkscape:showpageshadow="2"
     inkscape:pageopacity="0.0"
     inkscape:pagecheckerboard="true"
     inkscape:deskcolor="#d1d1d1"
     inkscape:document-units="mm"
     showguides="true"
     showgrid="false"
     inkscape:zoom="0.45254834"
     inkscape:cx="561.26601"
     inkscape:cy="416.53009"
     inkscape:window-width="1920"
     inkscape:window-height="1009"
     inkscape:window-x="1912"
     inkscape:window-y="-8"
     inkscape:window-maximized="1"
     inkscape:current-layer="layer1"
     inkscape:export-bgcolor="#00000000" /><defs
     id="defs1" /><g
     inkscape:label="Layer 1"
     inkscape:groupmode="layer"
     id="layer1"
     transform="translate(-53.116455,-47.130272)"><g
       id="g3"
       inkscape:export-filename="nh-logo.svg"
       inkscape:export-xdpi="95.957672"
       inkscape:export-ydpi="95.957672"
       transform="translate(-0.02987323,-0.04301088)"><g
         id="g4"
         inkscape:export-filename="nh-logo.svg"
         inkscape:export-xdpi="95.957672"
         inkscape:export-ydpi="95.957672"><rect
           style="fill:none;fill-opacity:1;stroke-width:0.080417"
           id="rect3"
           width="135.52641"
           height="135.55269"
           x="53.116455"
           y="47.130272" /><path
           style="fill:#ffcd3c;fill-opacity:1;stroke-width:1.62983"
           d="m 113.36634,163.85698 c -2.15807,-1.23723 -3.27907,-3.34517 -3.27907,-6.16602 0,-1.91091 -0.1426,-2.27415 -1.09281,-2.78265 -0.60103,-0.32167 -1.51094,-1.2614 -2.02198,-2.08831 -0.81157,-1.31312 -0.96961,-2.4193 -1.24849,-8.73782 -0.33833,-7.66567 -1.06636,-11.57074 -2.63644,-14.14168 -0.51879,-0.8495 -2.7999,-3.48507 -5.069077,-5.85679 -4.654473,-4.86477 -6.839658,-8.17352 -8.611992,-13.04 -5.027625,-13.804822 -0.818348,-29.313636 10.450022,-38.502409 3.172477,-2.586988 9.317577,-5.725936 13.249327,-6.767828 4.25721,-1.128135 11.76948,-1.018802 16.1465,0.234999 19.46665,5.576231 29.97732,26.088106 23.07691,45.035238 -1.77234,4.86648 -3.95752,8.17523 -8.61198,13.04 -2.26922,2.37172 -4.55028,5.00729 -5.0691,5.85679 -1.57008,2.57094 -2.2981,6.47601 -2.63644,14.14168 -0.27888,6.31852 -0.43694,7.4247 -1.24848,8.73782 -0.51107,0.82691 -1.42095,1.76664 -2.02198,2.08831 -0.95015,0.5085 -1.0928,0.87174 -1.0928,2.78265 0,2.82085 -1.121,4.92879 -3.27907,6.16602 -1.5109,0.86624 -2.26602,0.96317 -7.50154,0.96317 -5.23548,0 -5.99063,-0.097 -7.50151,-0.96317 z m 13.35859,-4.38756 c 0.3362,-0.46036 0.61129,-1.38212 0.61129,-2.0483 v -1.21125 h -6.46837 -6.46834 v 1.21125 c 0,1.30123 0.68305,2.41806 1.7249,2.82028 0.35576,0.13739 2.74886,0.20819 5.31802,0.15744 4.06358,-0.0803 4.7507,-0.20121 5.2825,-0.92938 z m 3.81467,-8.68065 c 0.47548,-0.47547 0.67762,-1.50461 0.67762,-3.44978 v -2.77218 h -10.34937 -10.34936 v 2.77218 c 0,4.23198 -0.26221,4.12743 10.34936,4.12743 7.60149,0 9.09902,-0.10506 9.67175,-0.67765 z m 0.43056,-11.21117 c 0.75467,-0.75465 0.94876,-1.49389 1.2863,-4.89842 0.41565,-4.19246 2.59891,-7.92632 7.89967,-13.51024 7.57689,-7.98165 9.86026,-13.60807 9.49232,-23.389892 -0.16003,-4.25552 -0.40329,-5.7369 -1.36935,-8.339848 -2.20192,-5.932882 -5.54932,-10.547493 -10.17147,-14.022014 -15.89266,-11.946723 -37.5355,-5.15009 -44.651019,14.022014 -0.96605,2.602948 -1.209285,4.084328 -1.369366,8.339848 -0.367931,9.781822 1.915446,15.408242 9.492345,23.389892 5.30078,5.58392 7.48401,9.31778 7.89965,13.51024 0.58307,5.88119 -0.0415,5.57541 11.38861,5.57541 7.98967,0 9.52846,-0.10312 10.10231,-0.67699 z M 98.726683,98.068518 c -1.44313,-1.59461 -0.64558,-7.242941 1.707307,-12.09165 1.4129,-2.911578 6.45458,-8.135892 9.20131,-9.534607 2.92461,-1.489297 6.22811,-2.523778 9.09522,-2.848145 2.15422,-0.243725 2.73385,-0.16331 3.44195,0.477522 1.05378,0.953675 1.09733,2.445074 0.0967,3.317274 -0.41763,0.364086 -1.95801,0.760816 -3.44914,0.888334 -5.64956,0.483178 -11.78564,4.763237 -14.37795,10.028947 -0.77082,1.565788 -1.51389,4.000315 -1.78857,5.860105 -0.64689,4.3795 -2.14652,5.869672 -3.927017,3.90222 z"
           id="path3" /></g></g></g></svg>
