<?xml version="1.0" encoding="UTF-8" standalone="no"?>
<!-- Created with Inkscape (http://www.inkscape.org/) -->

<svg
   width="512.22583"
   height="512.32513"
   viewBox="0 0 135.52642 135.5527"
   version="1.1"
   id="svg1"
   xml:space="preserve"
   sodipodi:docname="512.svg"
   inkscape:version="1.3.1 (91b66b0783, 2023-11-16)"
   inkscape:export-filename="512.png"
   inkscape:export-xdpi="25.4"
   inkscape:export-ydpi="25.4"
   xmlns:inkscape="http://www.inkscape.org/namespaces/inkscape"
   xmlns:sodipodi="http://sodipodi.sourceforge.net/DTD/sodipodi-0.dtd"
   xmlns="http://www.w3.org/2000/svg"
   xmlns:svg="http://www.w3.org/2000/svg"><sodipodi:namedview
     id="namedview1"
     pagecolor="#000000"
     bordercolor="#000000"
     borderopacity="0.16078431"
     inkscape:showpageshadow="2"
     inkscape:pageopacity="0.0"
     inkscape:pagecheckerboard="true"
     inkscape:deskcolor="#d1d1d1"
     inkscape:document-units="mm"
     showguides="true"
     showgrid="false"
     inkscape:zoom="0.10802093"
     inkscape:cx="620.2502"
     inkscape:cy="134.23325"
     inkscape:window-width="1920"
     inkscape:window-height="1009"
     inkscape:window-x="1912"
     inkscape:window-y="-8"
     inkscape:window-maximized="1"
     inkscape:current-layer="layer1"
     inkscape:export-bgcolor="#00000000" /><defs
     id="defs1" /><g
     inkscape:label="Layer 1"
     inkscape:groupmode="layer"
     id="layer1"
     transform="translate(-53.116455,-47.130272)"><g
       id="g3"
       inkscape:export-filename="nh-logo.svg"
       inkscape:export-xdpi="95.957672"
       inkscape:export-ydpi="95.957672"><g
         id="g4"
         inkscape:export-filename="nh-logo.svg"
         inkscape:export-xdpi="95.957672"
         inkscape:export-ydpi="95.957672"><rect
           style="fill:none;fill-opacity:1;stroke-width:0.080417"
           id="rect3"
           width="135.52641"
           height="135.55269"
           x="53.116455"
           y="47.130272" /><path
           style="fill:#0089ff;fill-opacity:1;stroke-width:2.12401"
           d="m 111.08819,178.69939 c -2.81243,-1.61238 -4.27333,-4.35948 -4.27333,-8.03566 0,-2.4903 -0.18584,-2.9637 -1.42415,-3.62639 -0.78328,-0.41919 -1.96908,-1.64387 -2.63508,-2.7215 -1.05765,-1.71129 -1.2636,-3.15287 -1.62705,-11.38723 -0.44092,-9.99003 -1.389685,-15.07916 -3.435849,-18.42965 -0.676101,-1.10709 -3.648848,-4.54178 -6.60609,-7.63265 -6.065756,-6.33983 -8.913517,-10.65183 -11.223247,-16.99389 -6.552068,-17.990624 -1.066484,-38.201922 13.618613,-50.176856 4.134398,-3.371395 12.142773,-7.462116 17.266683,-8.819923 5.54806,-1.470201 15.33815,-1.327716 21.04234,0.306253 25.36919,7.26702 39.06685,33.998378 30.07414,58.690526 -2.30974,6.34206 -5.15749,10.65406 -11.22325,16.99389 -2.95726,3.09087 -5.92998,6.52556 -6.6061,7.63265 -2.04617,3.35049 -2.99494,8.43962 -3.43586,18.42965 -0.36344,8.23436 -0.56941,9.67594 -1.62703,11.38723 -0.66604,1.07763 -1.85181,2.30231 -2.63508,2.7215 -1.23824,0.66269 -1.42415,1.13609 -1.42415,3.62639 0,3.67618 -1.46091,6.42328 -4.27332,8.03566 -1.96902,1.12888 -2.95312,1.25521 -9.77611,1.25521 -6.82296,0 -7.80707,-0.12638 -9.77608,-1.25521 z m 17.40908,-5.71793 c 0.43815,-0.59996 0.79666,-1.80121 0.79666,-2.66939 v -1.57851 h -8.42966 -8.42964 v 1.57851 c 0,1.6958 0.89016,3.15125 2.24791,3.67543 0.46363,0.17905 3.58236,0.27132 6.93053,0.20518 5.29571,-0.10469 6.19117,-0.26222 6.8842,-1.21119 z m 4.97135,-11.31275 c 0.61965,-0.61965 0.88308,-1.96084 0.88308,-4.49579 v -3.61273 h -13.48743 -13.48744 v 3.61273 c 0,5.51517 -0.34169,5.37891 13.48744,5.37891 9.90637,0 11.85797,-0.13684 12.60435,-0.88312 z m 0.56111,-14.61055 c 0.98348,-0.98346 1.23644,-1.94684 1.67633,-6.38368 0.54168,-5.46368 3.38692,-10.3297 10.29494,-17.60674 9.8743,-10.40178 12.85003,-17.73421 12.37054,-30.482013 -0.20857,-5.545843 -0.52558,-7.476389 -1.78456,-10.868597 C 153.71739,73.985323 149.35501,67.971498 143.33137,63.443458 122.61985,47.874327 94.414603,56.73179 85.141572,81.71713 c -1.258964,3.392208 -1.57595,5.322754 -1.784571,10.868597 -0.479493,12.747803 2.496238,20.080233 12.370558,30.482013 6.908021,7.27704 9.753251,12.14306 10.294911,17.60674 0.75988,7.66445 -0.0541,7.26594 14.8418,7.26594 10.41225,0 12.4176,-0.1344 13.16546,-0.88226 z M 92.009583,92.962974 C 90.128899,90.884851 91.16829,83.52388 94.234608,77.204976 96.075887,73.410568 102.64627,66.602172 106.22585,64.77935 c 3.81139,-1.940874 8.11656,-3.289022 11.85302,-3.711743 2.80739,-0.317624 3.56278,-0.212826 4.48559,0.622314 1.37331,1.242841 1.43006,3.186454 0.12609,4.323116 -0.54425,0.474481 -2.55171,0.991507 -4.49497,1.15769 -7.36258,0.629683 -15.3592,6.207513 -18.737537,13.069857 -1.004548,2.040555 -1.972906,5.213267 -2.330902,7.636963 -0.843014,5.70742 -2.797343,7.649426 -5.117715,5.085427 z"
           id="path3" /></g></g></g></svg>
